<?xml version="1.0" encoding="UTF-8" standalone="no"?>
<!DOCTYPE svg PUBLIC "-//W3C//DTD SVG 1.1//EN" "http://www.w3.org/Graphics/SVG/1.1/DTD/svg11.dtd">
<svg width="210mm" height="105mm" version="1.1" viewBox="0 0 595.276 297.638" xmlns="http://www.w3.org/2000/svg">
<g font-family="Helvetica,Arial,&quot;Liberation Sans&quot;" transform="translate(0 297.638)">
<title>Swiss QR Bill</title>
<g transform="translate(189.921 0)">
<text x="0" y="-274.665" font-size="11" font-weight="bold">Sezione pagamento</text>
</g>
<g transform="translate(189.921 -119.055) scale(3.18)">
<path fill="#000000" shape-rendering="crispEdges"
d="M0,-41h7v1h-7zm8,0h2v1h-2zm3,0h2v3h-2zm5,0h3v1h-3zm4,0h1v3h-1zm1,0h1v1h-1z
m3,0h2v1h-2zm3,0h2v1h-2zm3,0h1v1h-1zm4,0h7v1h-7zm-34,1h1v6h-1zm6,0h1v6h-1z
m2,0h1v1h-1zm2,0h1v1h-1zm4,0h2v1h-2zm4,0h1v1h-1zm5,0h1v3h-1zm2,0h1v1h-1z
m4,0h1v1h-1zm3,0h1v1h-1zm2,0h1v6h-1zm6,0h1v6h-1zm-38,1h3v3h-3zm7,0h1v1h-1z
m6,0h1v2h-1zm2,0h1v1h-1zm11,0h1v1h-1zm2,0h1v3h-1zm6,0h3v3h-3zm-28,1h1v1h-1z
m4,0h1v1h-1zm2,0h1v1h-1zm5,0h1v3h-1zm2,0h1v1h-1zm5,0h1v2h-1zm5,0h1v1h-1z
m-22,1h3v1h-3zm4,0h1v1h-1zm3,0h2v2h-2zm6,0h1v3h-1zm6,0h1v1h-1zm-19,1h1v1h-1z
m3,0h1v4h-1zm3,0h1v1h-1zm9,0h1v2h-1zm5,0h1v1h-1zm2,0h1v1h-1zm-30,1h5v1h-5z
m7,0h1v2h-1zm2,0h1v1h-1zm4,0h1v2h-1zm2,0h1v1h-1zm2,0h1v2h-1zm2,0h1v3h-1z
m6,0h1v1h-1zm2,0h1v1h-1zm2,0h1v1h-1zm2,0h1v2h-1zm3,0h5v1h-5zm-26,1h1v4h-1z
m2,0h1v1h-1zm2,0h1v2h-1zm4,0h1v2h-1zm2,0h1v3h-1zm10,0h1v2h-1zm2,0h1v1h-1z
m-31,1h1v2h-1zm2,0h2v1h-2zm3,0h3v1h-3zm10,0h1v1h-1zm6,0h2v2h-2zm3,0h1v2h-1z
m10,0h1v1h-1zm3,0h1v1h-1zm2,0h2v1h-2zm-37,1h1v1h-1zm9,0h1v2h-1zm3,0h1v2h-1z
m2,0h1v4h-1zm7,0h1v2h-1zm3,0h1v1h-1zm7,0h1v2h-1zm3,0h1v3h-1zm3,0h1v1h-1z
m-38,1h1v1h-1zm2,0h2v1h-2zm3,0h1v1h-1zm4,0h1v2h-1zm2,0h2v2h-2zm3,0h1v2h-1z
m2,0h2v1h-2zm3,0h1v1h-1zm5,0h1v2h-1zm4,0h1v1h-1zm3,0h1v1h-1zm3,0h1v1h-1z
m2,0h1v1h-1zm-37,1h1v8h-1zm2,0h1v1h-1zm2,0h2v6h-2zm3,0h1v4h-1zm11,0h2v1h-2z
m4,0h1v1h-1zm4,0h1v1h-1zm2,0h1v2h-1zm2,0h2v1h-2zm4,0h1v1h-1zm-28,1h1v1h-1z
m2,0h1v3h-1zm3,0h1v1h-1zm6,0h1v1h-1zm3,0h1v3h-1zm4,0h1v2h-1zm9,0h1v1h-1z
m2,0h1v2h-1zm2,0h1v3h-1zm2,0h2v1h-2zm-37,1h1v3h-1zm7,0h2v1h-2zm4,0h2v1h-2z
m5,0h1v2h-1zm3,0h3v2h-3zm5,0h1v2h-1zm12,0h1v1h-1zm-37,1h1v2h-1zm2,0h1v1h-1z
m3,0h1v1h-1zm3,0h1v1h-1zm5,0h1v3h-1zm3,0h1v1h-1zm2,0h1v1h-1zm10,0h1v1h-1z
m5,0h1v1h-1zm2,0h1v3h-1zm3,0h2v2h-2zm-28,1h1v2h-1zm2,0h1v3h-1zm3,0h1v3h-1z
m5,0h1v1h-1zm2,0h1v1h-1zm4,0h1v1h-1zm3,0h4v1h-4zm-24,1h2v1h-2zm6,0h1v1h-1z
m3,0h1v2h-1zm2,0h2v1h-2zm3,0h1v1h-1zm6,0h1v1h-1zm3,0h1v3h-1zm2,0h2v1h-2z
m6,0h1v5h-1zm3,0h1v1h-1zm-39,1h4v1h-4zm7,0h2v1h-2zm17,0h1v1h-1zm6,0h1v1h-1z
m2,0h1v1h-1zm6,0h1v2h-1zm-37,1h3v2h-3zm3,0h2v1h-2zm3,0h1v1h-1zm2,0h1v5h-1z
m4,0h1v2h-1zm10,0h1v1h-1zm3,0h2v1h-2zm11,0h1v2h-1zm-37,1h1v1h-1zm6,0h1v1h-1z
m5,0h1v3h-1zm15,0h1v1h-1zm4,0h3v1h-3zm4,0h2v1h-2zm-29,1h1v1h-1zm3,0h1v4h-1z
m4,0h1v1h-1zm2,0h1v2h-1zm9,0h2v1h-2zm4,0h1v2h-1zm2,0h1v2h-1zm4,0h1v1h-1z
m5,0h2v1h-2zm-39,1h1v2h-1zm4,0h2v2h-2zm12,0h1v1h-1zm8,0h1v1h-1zm2,0h2v1h-2z
m7,0h1v1h-1zm2,0h2v1h-2zm3,0h1v1h-1zm-37,1h1v3h-1zm5,0h3v1h-3zm19,0h1v4h-1z
m4,0h1v1h-1zm5,0h2v1h-2zm5,0h1v2h-1zm-37,1h1v2h-1zm3,0h1v1h-1zm2,0h1v2h-1z
m6,0h4v2h-4zm13,0h1v1h-1zm2,0h1v1h-1zm2,0h1v2h-1zm10,0h1v1h-1zm-40,1h1v1h-1z
m6,0h1v1h-1zm4,0h1v1h-1zm7,0h4v2h-4zm6,0h1v1h-1zm4,0h1v1h-1zm5,0h2v1h-2z
m4,0h1v1h-1zm-32,1h1v2h-1zm5,0h1v1h-1zm2,0h1v3h-1zm2,0h1v1h-1zm3,0h1v2h-1z
m6,0h1v2h-1zm6,0h2v1h-2zm3,0h2v1h-2zm4,0h1v1h-1zm3,0h1v1h-1zm-38,1h1v1h-1z
m5,0h4v1h-4zm5,0h1v5h-1zm4,0h2v1h-2zm3,0h1v1h-1zm2,0h1v1h-1zm5,0h1v3h-1z
m5,0h1v1h-1zm2,0h1v1h-1zm2,0h1v3h-1zm3,0h2v1h-2zm4,0h1v4h-1zm-37,1h1v2h-1z
m4,0h2v1h-2zm6,0h1v2h-1zm5,0h1v2h-1zm3,0h1v3h-1zm9,0h1v2h-1zm4,0h1v3h-1z
m3,0h1v1h-1zm2,0h1v1h-1zm-39,1h1v1h-1zm6,0h2v1h-2zm3,0h1v2h-1zm6,0h1v3h-1z
m5,0h1v2h-1zm6,0h1v1h-1zm3,0h1v4h-1zm7,0h1v1h-1zm2,0h1v1h-1zm-37,1h2v1h-2z
m3,0h1v2h-1zm4,0h1v7h-1zm3,0h1v5h-1zm1,0h1v1h-1zm5,0h1v3h-1zm2,0h1v3h-1z
m12,0h1v1h-1zm6,0h1v1h-1zm-37,1h1v1h-1zm2,0h2v1h-2zm4,0h1v1h-1zm8,0h1v1h-1z
m11,0h1v1h-1zm5,0h1v1h-1zm2,0h1v7h-1zm1,0h1v1h-1zm5,0h1v5h-1zm1,0h1v1h-1z
m-36,1h1v2h-1zm2,0h1v2h-1zm4,0h1v3h-1zm4,0h1v3h-1zm10,0h1v1h-1zm3,0h3v1h-3z
m8,0h2v2h-2zm6,0h1v1h-1zm-39,1h2v1h-2zm3,0h1v1h-1zm2,0h2v1h-2zm4,0h1v2h-1z
m5,0h1v3h-1zm7,0h1v1h-1zm3,0h1v3h-1zm2,0h2v2h-2zm4,0h1v1h-1zm2,0h1v1h-1z
m3,0h1v5h-1zm3,0h1v1h-1zm-27,1h1v1h-1zm2,0h1v2h-1zm3,0h2v1h-2zm4,0h1v1h-1z
m3,0h1v1h-1zm6,0h1v1h-1zm10,0h1v1h-1zm-40,1h7v1h-7zm16,0h1v4h-1zm2,0h1v1h-1z
m2,0h1v1h-1zm3,0h1v4h-1zm6,0h1v1h-1zm5,0h1v1h-1zm-34,1h1v6h-1zm6,0h1v6h-1z
m5,0h1v1h-1zm2,0h1v3h-1zm4,0h1v1h-1zm10,0h2v1h-2zm3,0h1v3h-1zm1,0h1v1h-1z
m6,0h1v1h-1zm3,0h1v1h-1zm-38,1h3v3h-3zm7,0h2v3h-2zm5,0h1v1h-1zm5,0h1v1h-1z
m2,0h1v1h-1zm3,0h1v1h-1zm2,0h1v2h-1zm7,0h3v1h-3zm-25,1h1v2h-1zm3,0h2v1h-2z
m4,0h1v2h-1zm2,0h1v2h-1zm3,0h1v1h-1zm2,0h1v2h-1zm5,0h1v1h-1zm8,0h1v1h-1z
m2,0h3v1h-3zm-23,1h1v1h-1zm5,0h1v1h-1zm6,0h1v1h-1zm4,0h1v1h-1zm2,0h3v1h-3z
m8,0h1v3h-1zm1,0h1v1h-1zm-27,1h1v2h-1zm3,0h1v1h-1zm2,0h1v2h-1zm3,0h1v2h-1z
m2,0h2v1h-2zm7,0h2v2h-2zm3,0h3v1h-3zm4,0h1v2h-1zm-36,1h5v1h-5zm7,0h2v1h-2z
m3,0h1v1h-1zm3,0h2v1h-2zm10,0h3v1h-3zm5,0h1v1h-1zm3,0h1v1h-1zm2,0h2v1h-2z
m4,0h1v1h-1z"/>
</g>
<g transform="translate(189.921 -119.055)">
<path fill="#000000" shape-rendering="crispEdges"
d="M56.693,-73.701h17.008v17.008h-17.008z"/>
<path fill="#FFFFFF" shape-rendering="crispEdges"
d="M63.543,-59.685l3.307,0l0,-3.858l3.858,0l0,-3.307l-3.858,0l0,-3.858l-3.307,0l0,3.858l-3.858,0l0,3.307l3.858,0"/>
</g>
<g transform="translate(189.921 0)">
<text x="0" y="-98.482" font-size="8" font-weight="bold">Valuta</text>
<text x="0" y="-85.482" font-size="10">CHF</text>
<text x="42.52" y="-98.482" font-size="8" font-weight="bold">Importo</text>
<path stroke="#000000" stroke-width="0.75" shape-rendering="crispEdges" fill="none"
d="M31.556,-59.466l0,8.129l8.129,0m96.378,0l8.129,0l0,-8.129m0,-25.512l0,-8.129l-8.129,0m-96.378,0l-8.129,0l0,8.129"/>
</g>
<g transform="translate(334.488 0)">
<text x="0" y="-277.065" font-size="8" font-weight="bold">Conto / Pagabile a</text>
<text x="0" y="-266.065" font-size="10">CH37 0900 0000 3044 4222 5</text>
<text x="0" y="-255.065" font-size="10">ABC AG</text>
<text x="0" y="-244.065" font-size="10">3000 Bern</text>
<text x="0" y="-222.065" font-size="8" font-weight="bold">Pagabile da (nome/indirizzo)</text>
<path stroke="#000000" stroke-width="0.75" shape-rendering="crispEdges" fill="none"
d="M0.375,-154.702l0,8.129l8.129,0m167.244,0l8.129,0l0,-8.129m0,-53.858l0,-8.129l-8.129,0m-167.244,0l-8.129,0l0,8.129"/>
</g>
<g transform="translate(14.173 0)">
<text x="0" y="-274.665" font-size="11" font-weight="bold">Ricevuta</text>
<text x="0" y="-258.822" font-size="6" font-weight="bold">Conto / Pagabile a</text>
<text x="0" y="-249.822" font-size="8">CH37 0900 0000 3044 4222 5</text>
<text x="0" y="-240.822" font-size="8">ABC AG</text>
<text x="0" y="-231.822" font-size="8">3000 Bern</text>
<text x="0" y="-213.822" font-size="6" font-weight="bold">Pagabile da (nome/indirizzo)</text>
<path stroke="#000000" stroke-width="0.75" shape-rendering="crispEdges" fill="none"
d="M0.375,-161.033l0,8.129l8.129,0m130.394,0l8.129,0l0,-8.129m0,-39.685l0,-8.129l-8.129,0m-130.394,0l-8.129,0l0,8.129"/>
<text x="0" y="-100.082" font-size="6" font-weight="bold">Valuta</text>
<text x="0" y="-89.082" font-size="8">CHF</text>
<text x="34.016" y="-100.082" font-size="6" font-weight="bold">Importo</text>
<path stroke="#000000" stroke-width="0.75" shape-rendering="crispEdges" fill="none"
d="M62.737,-85.039l0,8.129l8.129,0m68.031,0l8.129,0l0,-8.129m0,-11.339l0,-8.129l-8.129,0m-68.031,0l-8.129,0l0,8.129"/>
<text x="85.722" y="-60.397" font-size="6" font-weight="bold">Punto di accettazione</text>
</g>
<path stroke="#000000" stroke-width="0.5" shape-rendering="crispEdges" fill="none"
d="M175.748,0l0,-297.638"/>
</g>
</svg>
